HIERARCHY
ROOT Hips
{
	OFFSET 0.000000 0.000000 0.000000
	CHANNELS 6 Xposition Yposition Zposition Zrotation Yrotation Xrotation 
	JOINT LHipJoint
	{
		OFFSET 0.000000 0.000000 0.000000
		CHANNELS 3 Zrotation Yrotation Xrotation
		JOINT LeftUpLeg
		{
			OFFSET 1.363060 -1.794630 0.839290
			CHANNELS 3 Zrotation Yrotation Xrotation
			JOINT LeftLeg
			{
				OFFSET 2.448110 -6.726130 0.000000
				CHANNELS 3 Zrotation Yrotation Xrotation
				JOINT LeftFoot
				{
					OFFSET 2.562200 -7.039590 0.000000
					CHANNELS 3 Zrotation Yrotation Xrotation
					JOINT LeftToeBase
					{
						OFFSET 0.157640 -0.433110 2.322550
						CHANNELS 3 Zrotation Yrotation Xrotation
						End Site
						{
							OFFSET 0.000000 0.000000 0.000000
						}
					}
				}
			}
		}
	}
	JOINT RHipJoint
	{
		OFFSET 0.000000 0.000000 0.000000
		CHANNELS 3 Zrotation Yrotation Xrotation
		JOINT RightUpLeg
		{
			OFFSET -1.305520 -1.794630 0.839290
			CHANNELS 3 Zrotation Yrotation Xrotation
			JOINT RightLeg
			{
				OFFSET -2.542530 -6.985550 0.000000
				CHANNELS 3 Zrotation Yrotation Xrotation
				JOINT RightFoot
				{
					OFFSET -2.568260 -7.056230 0.000000
					CHANNELS 3 Zrotation Yrotation Xrotation
					JOINT RightToeBase
					{
						OFFSET -0.164730 -0.452590 2.363150
						CHANNELS 3 Zrotation Yrotation Xrotation
						End Site
						{
							OFFSET 0.000000 0.000000 0.000000
						}
					}
				}
			}
		}
	}
	JOINT LowerBack
	{
		OFFSET 0.000000 0.000000 0.000000
		CHANNELS 3 Zrotation Yrotation Xrotation
		JOINT Spine
		{
			OFFSET 0.028270 2.035590 -0.193380
			CHANNELS 3 Zrotation Yrotation Xrotation
			JOINT Spine1
			{
				OFFSET 0.056720 2.048850 -0.042750
				CHANNELS 3 Zrotation Yrotation Xrotation
				JOINT Neck
				{
					OFFSET 0.000000 0.000000 0.000000
					CHANNELS 3 Zrotation Yrotation Xrotation
					JOINT Neck1
					{
						OFFSET -0.054170 1.746240 0.172020
						CHANNELS 3 Zrotation Yrotation Xrotation
						JOINT Head
						{
							OFFSET 0.104070 1.761360 -0.123970
							CHANNELS 3 Zrotation Yrotation Xrotation
							End Site
							{
								OFFSET 0.000000 0.000000 0.000000
							}
						}
					}
				}
				JOINT LeftShoulder
				{
					OFFSET 0.000000 0.000000 0.000000
					CHANNELS 3 Zrotation Yrotation Xrotation
					JOINT LeftArm
					{
						OFFSET 3.362410 1.200890 -0.311210
						CHANNELS 3 Zrotation Yrotation Xrotation
						JOINT LeftForeArm
						{
							OFFSET 4.983000 -0.000000 -0.000000
							CHANNELS 3 Zrotation Yrotation Xrotation
							JOINT LeftHand
							{
								OFFSET 3.483560 -0.000000 -0.000000
								CHANNELS 3 Zrotation Yrotation Xrotation
								JOINT LeftFingerBase
								{
									OFFSET 0.000000 0.000000 0.000000
									CHANNELS 3 Zrotation Yrotation Xrotation
									JOINT LeftHandIndex1
									{
										OFFSET 0.715260 -0.000000 -0.000000
										CHANNELS 3 Zrotation Yrotation Xrotation
										End Site
										{
											OFFSET 0.000000 0.000000 0.000000
										}
									}
								}
								JOINT LThumb
								{
									OFFSET 0.000000 0.000000 0.000000
									CHANNELS 3 Zrotation Yrotation Xrotation
									End Site
									{
										OFFSET 0.000000 0.000000 0.000000
									}
								}
							}
						}
					}
				}
				JOINT RightShoulder
				{
					OFFSET 0.000000 0.000000 0.000000
					CHANNELS 3 Zrotation Yrotation Xrotation
					JOINT RightArm
					{
						OFFSET -3.136600 1.374050 -0.404650
						CHANNELS 3 Zrotation Yrotation Xrotation
						JOINT RightForeArm
						{
							OFFSET -5.241900 -0.000000 -0.000000
							CHANNELS 3 Zrotation Yrotation Xrotation
							JOINT RightHand
							{
								OFFSET -3.444170 -0.000000 -0.000000
								CHANNELS 3 Zrotation Yrotation Xrotation
								JOINT RightFingerBase
								{
									OFFSET 0.000000 0.000000 0.000000
									CHANNELS 3 Zrotation Yrotation Xrotation
									JOINT RightHandIndex1
									{
										OFFSET -0.622530 -0.000000 -0.000000
										CHANNELS 3 Zrotation Yrotation Xrotation
										End Site
										{
											OFFSET 0.000000 0.000000 0.000000
										}
									}
								}
								JOINT RThumb
								{
									OFFSET 0.000000 0.000000 0.000000
									CHANNELS 3 Zrotation Yrotation Xrotation
									End Site
									{
										OFFSET 0.000000 0.000000 0.000000
									}
								}
							}
						}
					}
				}
			}
		}
	}
}
MOTION
Frames: 13
Frame Time: 0.016667
-0.009683 16.961768 -0.091927 -0.502064 2.314564 7.805590 -2.426838 14.852516 -8.528327 -23.844858 -7.106635 -12.783921 -4.239082 1.087661 5.424103 -0.211411 0.547146 3.375401 0.000000 0.000000 0.000000 0.333610 -22.034061 7.204318 22.138000 6.303076 -2.135071 -3.578737 -8.436968 28.896422 2.815328 9.033267 -30.845111 0.000000 0.000000 0.000000 2.010301 2.128182 6.793214 -1.426385 0.799729 -10.485522 -13.168529 3.185355 1.892426 17.013626 -0.433188 -4.152623 1.025367 0.162942 -1.594492 0.000000 0.000000 0.000000 -10.921545 17.540242 1.746939 -43.377547 -1.732218 2.018816 -9.710059 6.818031 0.070440 -0.892537 -1.865165 0.035225 -0.893207 -1.865543 0.000000 0.000000 0.000000 0.000000 0.000000 0.000000 0.000000 -19.015082 -4.042246 16.899623 70.718554 6.082174 2.530473 82.214491 53.672689 0.300721 3.457891 15.664974 0.149249 3.467810 15.666333 0.000000 0.000000 0.000000 0.000000 0.000000 0.000000 0.000000 
0.025015 16.998957 0.071045 -0.553690 3.640331 8.283352 -4.285077 13.568419 -8.577452 -21.444308 -7.811951 -14.339240 -4.435250 1.952977 8.078632 -0.209426 -0.557591 0.582467 0.000000 0.000000 0.000000 1.746767 -22.180790 8.350686 20.318582 8.058805 -4.785734 -2.800273 -9.776251 31.282434 3.799467 7.122800 -28.998983 0.000000 0.000000 0.000000 2.625040 2.563853 5.922439 -3.524199 0.650655 -11.291378 -13.620730 3.725972 3.230006 20.003280 -0.170765 -5.903890 0.208893 0.119981 -1.276862 0.000000 0.000000 0.000000 -14.332922 15.156719 1.353737 -38.382298 -0.740069 2.917121 -9.524868 6.149142 0.091034 -0.731457 -1.461065 0.045534 -0.732458 -1.461756 0.000000 0.000000 0.000000 0.000000 0.000000 0.000000 0.000000 -18.923626 -0.816835 16.862614 64.546068 7.422152 -1.554550 90.499190 43.450656 0.171061 2.970311 18.374402 0.083842 2.965110 18.376398 0.000000 0.000000 0.000000 0.000000 0.000000 0.000000 0.000000 
0.100681 17.037965 0.233657 -0.724553 4.790908 8.685555 -6.582991 12.124744 -8.416526 -18.472020 -8.393144 -16.103056 -4.486046 2.879863 10.669578 -0.235761 -1.638589 -2.305379 0.000000 0.000000 0.000000 2.592068 -22.482493 9.399770 18.881421 9.657948 -6.986373 -1.896765 -10.915755 33.316469 4.778543 5.040996 -26.510364 0.000000 0.000000 0.000000 4.090204 3.372183 4.982408 -6.523446 0.652463 -12.007909 -13.451443 4.388268 4.090151 22.654411 0.179563 -7.170807 -0.865614 0.074877 -0.660219 0.000000 0.000000 0.000000 -17.879033 12.409913 1.531901 -33.250969 0.755601 3.424211 -9.371090 5.652797 0.119401 -0.636659 -1.205041 0.059756 -0.638390 -1.206491 0.000000 0.000000 0.000000 0.000000 0.000000 0.000000 0.000000 -17.664761 1.833737 15.703432 56.361484 8.494835 -4.060949 99.214622 32.764161 0.004294 2.530066 19.766370 0.000640 2.508436 19.768693 -0.000000 0.000000 0.000000 0.000000 0.000000 0.000000 0.000000 
0.166480 17.058957 0.380422 -0.609144 5.486943 8.708006 -8.286603 10.849378 -8.479638 -16.372649 -8.505839 -17.043028 -4.497619 3.943844 13.198917 -0.275165 -2.370308 -4.685859 0.000000 0.000000 0.000000 3.230080 -21.853682 9.675964 17.265645 10.956386 -8.631072 -0.949131 -12.560192 36.415081 6.178860 2.118687 -23.339258 0.000000 0.000000 0.000000 5.279622 3.750772 4.847067 -8.221381 0.549514 -11.769780 -13.456304 4.477194 4.055933 22.684342 0.489682 -8.305861 -0.979965 0.096949 0.058114 0.000000 0.000000 0.000000 -19.285085 10.508967 1.890592 -31.635338 1.291567 3.169627 -9.451612 5.714792 0.123713 -0.616642 -1.190675 0.061932 -0.618644 -1.192559 0.000000 0.000000 0.000000 0.000000 0.000000 0.000000 0.000000 -16.245852 3.089852 14.592179 52.290715 9.549326 -5.078441 104.362040 25.560119 -0.032687 2.550663 20.366020 -0.017125 2.528438 20.368115 -0.000000 0.000000 0.000000 0.000000 0.000000 0.000000 0.000000 
0.233881 17.080792 0.525951 -0.563755 6.186115 8.703429 -10.047722 9.510521 -8.431955 -14.048471 -8.565694 -18.044601 -4.547635 5.014480 15.708964 -0.306061 -2.999337 -6.766736 0.000000 0.000000 0.000000 3.790774 -21.143851 9.830423 15.763103 11.962337 -9.910048 0.160846 -14.100340 38.905808 7.731622 -1.037118 -19.980840 0.000000 0.000000 0.000000 6.542691 4.173945 4.686088 -9.925186 0.503664 -11.357443 -13.508576 4.518974 3.915163 22.669592 0.807123 -9.520424 -1.065444 0.127349 0.920702 0.000000 0.000000 0.000000 -20.648604 8.599871 2.256529 -29.981727 1.913470 2.737737 -9.516267 5.805657 0.124840 -0.605855 -1.175764 0.062520 -0.608187 -1.178213 0.000000 0.000000 0.000000 0.000000 0.000000 0.000000 0.000000 -14.881056 4.249975 13.343432 48.763794 10.800066 -6.561692 108.847385 18.302320 -0.072765 2.415593 20.381803 -0.036503 2.392455 20.383813 0.000000 0.000000 0.000000 0.000000 0.000000 0.000000 0.000000 
0.289727 17.111744 0.676346 -0.385787 6.450217 8.627309 -10.551069 9.088263 -8.353052 -13.801013 -8.534935 -17.873795 -4.135024 5.316077 16.697654 -0.349401 -3.254050 -7.503300 0.000000 0.000000 0.000000 3.743979 -20.678796 9.860849 15.127870 12.492639 -10.376905 0.525081 -14.891270 40.484137 8.839534 -3.746286 -16.389577 0.000000 0.000000 0.000000 7.214665 4.351157 4.547819 -11.226052 0.284828 -11.354002 -13.495991 4.414079 3.968608 23.488724 0.910247 -9.241153 -1.365597 0.134402 1.097279 0.000000 0.000000 0.000000 -22.022540 8.061673 2.123100 -28.046261 2.491101 2.560936 -9.267779 5.815747 0.126297 -0.614861 -1.160282 0.063268 -0.617521 -1.163177 0.000000 0.000000 0.000000 0.000000 0.000000 0.000000 0.000000 -14.304723 4.421471 12.741133 46.898569 11.066630 -7.536882 110.946786 12.025585 -0.116506 2.421868 19.394258 -0.057729 2.402069 19.395800 -0.000000 0.000000 0.000000 0.000000 0.000000 0.000000 0.000000 
0.347104 17.142963 0.825534 -0.239961 6.664100 8.524359 -11.038121 8.632437 -8.213956 -13.149179 -8.393073 -17.845790 -4.447308 5.876518 17.682718 -0.397019 -3.243340 -8.090683 0.000000 0.000000 0.000000 3.660124 -20.215435 9.845180 14.569169 12.910712 -10.695468 0.915915 -15.576885 41.817688 9.992567 -6.551359 -12.762030 0.000000 0.000000 0.000000 7.886039 4.555711 4.419917 -12.515701 0.099203 -11.336760 -13.468532 4.320813 4.028594 24.341398 1.013171 -8.941653 -1.684693 0.143359 1.272330 0.000000 0.000000 0.000000 -23.387829 7.524601 1.956823 -26.087419 3.096187 2.338711 -9.029218 5.825262 0.126695 -0.625842 -1.144921 0.063488 -0.628894 -1.148313 0.000000 0.000000 0.000000 0.000000 0.000000 0.000000 0.000000 -13.755087 4.582265 12.131240 45.359379 11.321224 -8.550343 113.018290 6.003506 -0.147602 2.557810 17.945488 -0.072937 2.542203 17.946565 -0.000000 0.000000 0.000000 0.000000 0.000000 0.000000 0.000000 
0.378812 17.182819 0.977432 0.019690 7.079362 8.566918 -11.459443 8.300154 -8.004945 -12.571663 -8.424370 -18.011226 -4.938243 6.375272 18.702397 -0.420261 -3.122050 -8.141013 0.000000 0.000000 0.000000 4.179734 -19.575015 9.878593 13.388989 13.164164 -11.423341 1.310980 -16.368950 42.950188 11.235656 -9.486254 -9.360179 0.000000 0.000000 0.000000 8.090060 4.613582 4.233510 -13.166989 -0.010313 -10.874333 -13.484629 4.126916 3.794633 24.277745 1.181076 -8.934051 -1.595647 0.174990 1.539604 0.000000 0.000000 0.000000 -23.848024 6.889918 2.030241 -25.557495 3.368648 2.141339 -9.003600 5.915095 0.125267 -0.630113 -1.150466 0.062785 -0.633340 -1.154118 0.000000 0.000000 0.000000 0.000000 0.000000 0.000000 0.000000 -13.273863 4.565890 11.313023 44.644327 11.785168 -9.567893 114.136705 0.270970 -0.168271 2.489199 16.665380 -0.083442 2.472953 16.666778 -0.000000 0.000000 0.000000 0.000000 0.000000 0.000000 0.000000 
0.410908 17.222368 1.127754 0.258639 7.462320 8.595717 -11.867668 7.981165 -7.767281 -11.972467 -8.450205 -18.177535 -5.437977 6.861336 19.662950 -0.443001 -2.966686 -8.111679 0.000000 0.000000 0.000000 4.666997 -18.955888 9.871496 12.269384 13.309307 -12.028527 1.716902 -17.073123 43.892997 12.518139 -12.528330 -5.987896 0.000000 0.000000 0.000000 8.296221 4.674596 4.051461 -13.769800 -0.094830 -10.373788 -13.543342 3.936097 3.542025 24.191269 1.353035 -8.946532 -1.478327 0.208205 1.821838 0.000000 0.000000 0.000000 -24.288654 6.262804 2.093324 -25.034209 3.640420 1.925140 -8.984989 6.004076 0.123370 -0.634988 -1.156016 0.061846 -0.638397 -1.159937 0.000000 0.000000 0.000000 0.000000 0.000000 0.000000 0.000000 -12.833727 4.543784 10.510179 44.251642 12.313190 -10.765238 115.355657 -5.467164 -0.183989 2.580431 15.011434 -0.091492 2.564857 15.013076 -0.000000 0.000000 0.000000 0.000000 0.000000 0.000000 0.000000 
0.428807 17.252586 1.272756 0.439283 7.825938 8.551563 -12.265268 7.627229 -7.593875 -11.336322 -8.506218 -18.384855 -5.699688 7.389697 20.944455 -0.452373 -2.926520 -8.225195 0.000000 0.000000 0.000000 5.361164 -18.067979 9.692919 10.931491 13.331666 -12.581555 2.379134 -17.978016 44.979117 14.145454 -16.128598 -2.643032 0.000000 0.000000 0.000000 8.211695 4.535831 4.015242 -13.686365 -0.216636 -10.030553 -13.924682 3.735619 3.358142 24.084642 1.513019 -9.155559 -1.180622 0.242308 2.115879 0.000000 0.000000 0.000000 -24.507430 5.799290 2.164210 -24.895090 3.584347 1.642892 -9.169390 5.815805 0.117246 -0.634633 -1.156669 0.058779 -0.637945 -1.160560 0.000000 0.000000 0.000000 0.000000 0.000000 0.000000 0.000000 -12.926538 4.499394 10.156415 45.929508 13.159495 -11.857707 114.126178 -10.382855 -0.292088 2.710696 12.639647 -0.145823 2.692798 12.642352 -0.000000 0.000000 0.000000 0.000000 0.000000 0.000000 0.000000 
0.446107 17.281739 1.415666 0.602566 8.130335 8.497704 -12.643307 7.291275 -7.407585 -10.697605 -8.544407 -18.580817 -5.956889 7.904709 22.157646 -0.462864 -2.852970 -8.272905 0.000000 0.000000 0.000000 6.015285 -17.206384 9.471446 9.667722 13.239965 -13.000154 3.030187 -18.763906 45.873940 15.797021 -19.861362 0.567087 0.000000 0.000000 0.000000 8.128720 4.377614 4.004740 -13.597229 -0.356220 -9.711905 -14.291167 3.556212 3.220688 23.993572 1.669651 -9.398292 -0.873656 0.272977 2.359213 0.000000 0.000000 0.000000 -24.750297 5.388091 2.204636 -24.747746 3.477737 1.359048 -9.359625 5.610275 0.110915 -0.632688 -1.156552 0.055608 -0.635901 -1.160406 0.000000 0.000000 0.000000 0.000000 0.000000 0.000000 0.000000 -12.996709 4.478056 10.057940 47.517998 13.806471 -12.603026 112.649758 -13.683083 -0.362080 2.699209 11.019930 -0.180997 2.680742 11.023788 -0.000000 0.000000 0.000000 0.000000 0.000000 0.000000 0.000000 
0.460250 17.309490 1.556573 0.801653 8.287681 8.517476 -13.159740 6.989574 -7.098946 -10.017698 -8.592650 -18.888622 -6.032242 8.285259 23.139903 -0.467877 -2.880931 -8.461371 0.000000 0.000000 0.000000 6.973969 -16.176154 9.241200 8.004528 12.925067 -13.536724 3.626612 -19.531160 46.638631 17.210320 -23.410029 3.549645 0.000000 0.000000 0.000000 7.890857 4.131481 3.918525 -13.745800 -0.676191 -9.926840 -14.539459 3.427914 3.280986 24.658357 1.727094 -9.289395 -0.781942 0.284182 2.369332 0.000000 0.000000 0.000000 -25.179936 5.349285 2.250990 -24.230095 3.181884 1.253665 -9.607700 5.001374 0.104448 -0.626730 -1.142402 0.052358 -0.629581 -1.145904 -0.000000 0.000000 0.000000 0.000000 0.000000 0.000000 0.000000 -13.504308 4.316476 10.634050 50.594689 14.217859 -11.577126 107.839937 -12.670970 -0.446197 2.154642 10.661344 -0.223192 2.132249 10.666720 -0.000000 0.000000 0.000000 0.000000 0.000000 0.000000 0.000000 
0.473812 17.336249 1.695537 0.875116 8.342759 8.482950 -13.554275 6.774978 -6.764256 -9.337380 -8.621596 -19.184183 -6.113135 8.656926 24.055907 -0.472422 -2.886371 -8.615478 0.000000 0.000000 0.000000 7.570913 -15.350206 8.909151 7.009888 12.613661 -13.669157 4.044927 -19.985199 47.239049 18.587588 -27.072735 6.444245 0.000000 0.000000 0.000000 7.750092 3.942981 3.871038 -13.869479 -0.938327 -10.139433 -14.789632 3.346681 3.309216 25.325110 1.777274 -9.181187 -0.725520 0.294016 2.401662 0.000000 0.000000 0.000000 -25.665445 5.278433 2.326733 -23.629058 2.899523 1.148937 -9.868580 4.343291 0.097536 -0.620010 -1.121677 0.048886 -0.622491 -1.124837 -0.000000 0.000000 0.000000 0.000000 0.000000 0.000000 0.000000 -13.951503 4.150755 11.182768 53.731523 14.518553 -10.648205 103.009865 -11.720485 -0.505899 1.591451 10.240937 -0.253149 1.566428 10.247537 -0.000000 0.000000 0.000000 0.000000 0.000000 0.000000 0.000000 
